<svg xmlns="http://www.w3.org/2000/svg" xmlns:xlink="http://www.w3.org/1999/xlink" width="500" zoomAndPan="magnify" viewBox="0 0 375 374.999991" height="500" preserveAspectRatio="xMidYMid meet" version="1.0"><defs><clipPath id="id1"><path d="M 157.097656 96.730469 L 255 96.730469 L 255 161 L 157.097656 161 Z M 157.097656 96.730469 " clip-rule="nonzero"/></clipPath><clipPath id="id2"><path d="M 242.636719 133.496094 L 262.828125 133.496094 L 262.828125 242.230469 L 242.636719 242.230469 Z M 242.636719 133.496094 " clip-rule="nonzero"/></clipPath><clipPath id="id3"><path d="M 114 135.085938 L 261 135.085938 L 261 278.335938 L 114 278.335938 Z M 114 135.085938 " clip-rule="nonzero"/></clipPath></defs><g clip-path="url(#id1)"><path fill="rgb(27.449036%, 29.798889%, 38.42926%)" d="M 254.832031 148.671875 L 229.015625 160.761719 L 224.109375 153.851562 L 213.21875 149.628906 L 202.152344 146.875 L 186.972656 143.792969 L 174.1875 147.113281 L 157.097656 124.34375 L 215.894531 96.808594 L 254.832031 148.671875 " fill-opacity="1" fill-rule="nonzero"/></g><path fill="rgb(41.569519%, 43.139648%, 50.19989%)" d="M 237.527344 142.5625 C 236.875 137.828125 224.433594 131.171875 208.304688 127.15625 C 192.171875 123.140625 178.058594 123.183594 175.25 127.0625 L 175.054688 127.011719 L 169.277344 150.109375 L 169.417969 150.144531 C 171.996094 146.140625 186.25 146.050781 202.5625 150.113281 C 218.871094 154.171875 231.410156 160.929688 231.804688 165.675781 L 231.941406 165.707031 L 237.722656 142.609375 L 237.527344 142.5625 " fill-opacity="1" fill-rule="nonzero"/><path fill="rgb(27.449036%, 29.798889%, 38.42926%)" d="M 231.925781 165.734375 C 230.734375 170.488281 215.746094 170.851562 198.441406 166.542969 C 181.136719 162.234375 168.070312 154.890625 169.261719 150.136719 C 169.292969 150.015625 169.328125 149.898438 169.378906 149.78125 C 171.214844 145.367188 185.882812 145.128906 202.746094 149.328125 C 214.007812 152.132812 223.46875 156.21875 228.378906 160.046875 C 231.015625 162.097656 232.34375 164.074219 231.925781 165.734375 " fill-opacity="1" fill-rule="nonzero"/><path fill="rgb(21.958923%, 24.308777%, 33.729553%)" d="M 228.378906 160.046875 C 226.539062 164.460938 211.875 164.695312 195.015625 160.5 C 183.753906 157.695312 174.285156 153.605469 169.378906 149.78125 C 171.214844 145.367188 185.882812 145.128906 202.746094 149.328125 C 214.007812 152.132812 223.46875 156.21875 228.378906 160.046875 " fill-opacity="1" fill-rule="nonzero"/><g clip-path="url(#id2)"><path fill="rgb(98.429871%, 62.348938%, 64.309692%)" d="M 260.996094 232.851562 C 257.820312 225.289062 253.480469 219.632812 250.425781 218.726562 C 250.824219 218.066406 250.917969 217.230469 250.59375 216.464844 C 250.082031 215.242188 248.707031 214.636719 247.464844 215.0625 C 246.460938 213.152344 244.675781 209.078125 244.035156 203.273438 C 243.195312 195.683594 244.199219 183.496094 253.742188 168.539062 C 260.027344 158.691406 261.785156 150.511719 258.96875 144.222656 C 255.191406 135.785156 244.648438 133.953125 244.203125 133.882812 L 244.03125 134.917969 C 244.132812 134.933594 254.46875 136.738281 258.007812 144.65625 C 260.667969 150.601562 258.933594 158.445312 252.851562 167.976562 C 243.125 183.222656 242.125 195.683594 242.996094 203.457031 C 243.671875 209.492188 245.507812 213.648438 246.554688 215.609375 C 245.8125 216.304688 245.539062 217.410156 245.957031 218.402344 C 246.277344 219.167969 246.9375 219.691406 247.6875 219.871094 C 246.195312 222.675781 247.1875 229.730469 250.359375 237.289062 C 251.085938 239.023438 251.875 240.652344 252.695312 242.152344 L 262.828125 237.921875 C 262.332031 236.289062 261.722656 234.582031 260.996094 232.851562 " fill-opacity="1" fill-rule="nonzero"/></g><path fill="rgb(30.589294%, 46.669006%, 76.858521%)" d="M 258.140625 206.707031 C 258.140625 245.734375 226.519531 277.371094 187.511719 277.371094 C 148.503906 277.371094 116.882812 245.734375 116.882812 206.707031 C 116.882812 167.683594 148.503906 136.046875 187.511719 136.046875 C 226.519531 136.046875 258.140625 167.683594 258.140625 206.707031 " fill-opacity="1" fill-rule="nonzero"/><path fill="rgb(67.059326%, 86.268616%, 32.548523%)" d="M 171.394531 252.15625 C 158.664062 242.742188 143.066406 247.136719 135.25 254.238281 C 147.609375 267.832031 165.191406 276.578125 184.824219 277.3125 C 184.261719 268.113281 179.3125 258.007812 171.394531 252.15625 Z M 243.242188 163.296875 C 232.492188 167.984375 222.371094 181.554688 223.558594 205.632812 C 223.929688 213.125 225.171875 219.167969 210.46875 223.8125 C 190.398438 230.148438 197.667969 258.078125 206.414062 274.808594 C 236.242188 266.539062 258.140625 239.183594 258.140625 206.707031 C 258.140625 190.339844 252.578125 175.277344 243.242188 163.296875 Z M 191.960938 136.1875 C 194.023438 142.582031 194.3125 149.113281 192.417969 154.09375 C 184.582031 174.703125 156.300781 169.628906 169.777344 185.800781 C 174.648438 191.648438 189.847656 198.964844 182.402344 210.722656 C 174.566406 223.101562 152.484375 213.441406 146.488281 223.445312 C 142.414062 230.242188 143.300781 242.808594 127.753906 244.382812 C 120.871094 233.476562 116.882812 220.558594 116.882812 206.707031 C 116.882812 167.683594 148.503906 136.046875 187.511719 136.046875 C 189.007812 136.046875 190.488281 136.097656 191.960938 136.1875 " fill-opacity="1" fill-rule="nonzero"/><g clip-path="url(#id3)"><path fill="rgb(20.779419%, 7.839966%, 16.859436%)" d="M 257.976562 219.382812 C 257.257812 223.429688 256.191406 227.390625 254.789062 231.238281 C 255.972656 230.148438 256.792969 229.046875 257.351562 227.996094 C 259.054688 224.796875 258.648438 221.578125 257.976562 219.382812 Z M 259.042969 228.898438 C 257.855469 231.132812 255.972656 233.078125 253.410156 234.734375 C 251.558594 239.082031 249.273438 243.257812 246.558594 247.210938 C 246.375 247.480469 246.074219 247.625 245.769531 247.625 C 245.582031 247.625 245.394531 247.570312 245.226562 247.457031 C 244.792969 247.15625 244.683594 246.5625 244.980469 246.125 C 247.136719 242.988281 249.015625 239.699219 250.609375 236.300781 C 244.054688 239.480469 234.292969 241.289062 221.402344 241.699219 L 211.9375 245.96875 C 211.808594 246.023438 211.675781 246.050781 211.542969 246.050781 C 211.175781 246.050781 210.828125 245.84375 210.667969 245.488281 C 210.449219 245.003906 210.664062 244.4375 211.148438 244.21875 L 216.679688 241.722656 L 211.269531 241.746094 C 211.265625 241.746094 211.265625 241.746094 211.261719 241.746094 C 210.738281 241.746094 210.308594 241.320312 210.304688 240.792969 C 210.304688 240.265625 210.730469 239.835938 211.257812 239.832031 L 216.421875 239.808594 L 211.136719 237.613281 C 210.648438 237.410156 210.417969 236.851562 210.621094 236.359375 C 210.824219 235.871094 211.382812 235.640625 211.871094 235.84375 L 221.351562 239.78125 C 237.476562 239.269531 246.6875 236.566406 251.898438 233.386719 C 255.378906 224.996094 257.183594 215.964844 257.183594 206.707031 C 257.183594 203.03125 256.894531 199.34375 256.324219 195.742188 C 256.242188 195.21875 256.597656 194.730469 257.121094 194.644531 C 257.644531 194.566406 258.136719 194.917969 258.21875 195.441406 C 258.800781 199.144531 259.097656 202.933594 259.097656 206.707031 C 259.097656 209.765625 258.902344 212.796875 258.527344 215.789062 C 259.164062 216.890625 262.273438 222.828125 259.042969 228.898438 Z M 254.078125 186.0625 C 254.203125 186.476562 254.582031 186.738281 254.992188 186.738281 C 255.085938 186.738281 255.179688 186.726562 255.273438 186.695312 C 255.78125 186.539062 256.0625 186.003906 255.90625 185.496094 C 254.335938 180.421875 252.1875 175.507812 249.519531 170.894531 C 249.253906 170.4375 248.667969 170.28125 248.210938 170.542969 C 247.753906 170.8125 247.597656 171.398438 247.859375 171.855469 C 250.457031 176.34375 252.546875 181.125 254.078125 186.0625 Z M 120.296875 231.300781 C 118.878906 227.433594 117.789062 223.433594 117.054688 219.34375 C 116.378906 221.546875 115.953125 224.800781 117.671875 228.015625 C 118.242188 229.078125 119.078125 230.195312 120.296875 231.300781 Z M 234.367188 259.59375 C 234.710938 259.992188 234.667969 260.597656 234.265625 260.945312 C 221.285156 272.15625 204.679688 278.328125 187.511719 278.328125 C 172.816406 278.328125 158.695312 273.90625 146.675781 265.539062 C 135.457031 257.730469 126.878906 247.003906 121.671875 234.777344 C 119.074219 233.109375 117.167969 231.148438 115.96875 228.898438 C 112.707031 222.769531 115.910156 216.777344 116.507812 215.757812 C 116.125 212.777344 115.925781 209.753906 115.925781 206.707031 C 115.925781 187.578125 123.375 169.589844 136.894531 156.066406 C 150.414062 142.535156 168.390625 135.085938 187.511719 135.085938 C 206.101562 135.085938 223.714844 142.183594 237.113281 155.066406 C 237.492188 155.429688 237.503906 156.039062 237.140625 156.421875 C 236.773438 156.800781 236.167969 156.8125 235.785156 156.445312 C 222.746094 143.910156 205.601562 137.003906 187.511719 137.003906 C 149.097656 137.003906 117.84375 168.273438 117.84375 206.707031 C 117.84375 216.003906 119.703125 225.0625 123.171875 233.421875 C 128.390625 236.585938 137.59375 239.269531 153.660156 239.78125 L 163.140625 235.84375 C 163.632812 235.640625 164.191406 235.871094 164.394531 236.359375 C 164.597656 236.851562 164.367188 237.410156 163.878906 237.613281 L 158.589844 239.808594 L 163.753906 239.832031 C 164.28125 239.835938 164.710938 240.265625 164.707031 240.792969 C 164.707031 241.320312 164.277344 241.746094 163.75 241.746094 C 163.75 241.746094 163.746094 241.746094 163.746094 241.746094 L 158.332031 241.722656 L 163.867188 244.21875 C 164.347656 244.4375 164.5625 245.003906 164.34375 245.488281 C 164.1875 245.84375 163.835938 246.050781 163.472656 246.050781 C 163.339844 246.050781 163.207031 246.023438 163.078125 245.96875 L 153.613281 241.699219 C 140.761719 241.289062 131.019531 239.488281 124.464844 236.328125 C 129.601562 247.269531 137.5625 256.859375 147.769531 263.964844 C 159.46875 272.109375 173.210938 276.410156 187.511719 276.410156 C 204.222656 276.410156 220.382812 270.402344 233.015625 259.492188 C 233.414062 259.148438 234.019531 259.191406 234.367188 259.59375 Z M 205.523438 177.785156 C 206.519531 176.066406 208.363281 175 210.335938 175 C 212.308594 175 214.152344 176.066406 215.148438 177.785156 C 215.324219 178.09375 215.648438 178.261719 215.976562 178.261719 C 216.140625 178.261719 216.304688 178.222656 216.457031 178.132812 C 216.914062 177.867188 217.070312 177.28125 216.804688 176.824219 C 215.46875 174.519531 212.992188 173.085938 210.335938 173.085938 C 207.679688 173.085938 205.203125 174.519531 203.867188 176.824219 C 203.601562 177.28125 203.757812 177.867188 204.214844 178.132812 C 204.671875 178.398438 205.257812 178.242188 205.523438 177.785156 Z M 171.933594 176.824219 C 170.597656 174.519531 168.117188 173.085938 165.464844 173.085938 C 162.808594 173.085938 160.332031 174.519531 158.996094 176.824219 C 158.730469 177.28125 158.886719 177.867188 159.34375 178.132812 C 159.800781 178.398438 160.386719 178.242188 160.652344 177.785156 C 161.644531 176.066406 163.488281 175 165.464844 175 C 167.4375 175 169.28125 176.066406 170.277344 177.785156 C 170.453125 178.09375 170.773438 178.261719 171.105469 178.261719 C 171.269531 178.261719 171.433594 178.222656 171.585938 178.132812 C 172.042969 177.867188 172.199219 177.28125 171.933594 176.824219 Z M 210.335938 202.511719 C 214.121094 202.511719 217.203125 199.429688 217.203125 195.640625 C 217.203125 191.851562 214.121094 188.769531 210.335938 188.769531 C 206.546875 188.769531 203.46875 191.851562 203.46875 195.640625 C 203.46875 199.429688 206.546875 202.511719 210.335938 202.511719 Z M 193.074219 206.640625 C 193.074219 209.710938 190.578125 212.207031 187.511719 212.207031 C 184.445312 212.207031 181.949219 209.710938 181.949219 206.640625 C 181.949219 206.113281 181.523438 205.683594 180.992188 205.683594 C 180.464844 205.683594 180.035156 206.113281 180.035156 206.640625 C 180.035156 210.769531 183.390625 214.125 187.511719 214.125 C 191.636719 214.125 194.992188 210.769531 194.992188 206.640625 C 194.992188 206.113281 194.5625 205.683594 194.03125 205.683594 C 193.503906 205.683594 193.074219 206.113281 193.074219 206.640625 Z M 171.558594 195.640625 C 171.558594 199.429688 168.476562 202.511719 164.691406 202.511719 C 160.902344 202.511719 157.820312 199.429688 157.820312 195.640625 C 157.820312 191.851562 160.902344 188.769531 164.691406 188.769531 C 168.476562 188.769531 171.558594 191.851562 171.558594 195.640625 " fill-opacity="1" fill-rule="nonzero"/></g><path fill="rgb(94.509888%, 45.098877%, 67.449951%)" d="M 221.382812 206.5625 L 216.058594 211.890625 C 215.6875 212.261719 215.6875 212.871094 216.058594 213.246094 C 216.246094 213.433594 216.492188 213.527344 216.738281 213.527344 C 216.980469 213.527344 217.226562 213.433594 217.414062 213.246094 L 222.738281 207.917969 C 223.113281 207.542969 223.113281 206.9375 222.738281 206.5625 C 222.367188 206.1875 221.757812 206.1875 221.382812 206.5625 Z M 229.433594 206.5625 L 224.109375 211.890625 C 223.738281 212.261719 223.738281 212.871094 224.113281 213.246094 C 224.296875 213.433594 224.542969 213.527344 224.789062 213.527344 C 225.035156 213.527344 225.277344 213.433594 225.464844 213.246094 L 230.789062 207.917969 C 231.164062 207.542969 231.164062 206.9375 230.789062 206.5625 C 230.417969 206.1875 229.808594 206.1875 229.433594 206.5625 Z M 150.914062 206.5625 C 150.539062 206.1875 149.933594 206.1875 149.558594 206.5625 L 144.234375 211.890625 C 143.859375 212.261719 143.859375 212.871094 144.234375 213.246094 C 144.421875 213.433594 144.667969 213.527344 144.910156 213.527344 C 145.15625 213.527344 145.402344 213.433594 145.589844 213.246094 L 150.914062 207.917969 C 151.289062 207.542969 151.289062 206.9375 150.914062 206.5625 Z M 158.964844 206.5625 C 159.339844 206.9375 159.339844 207.542969 158.964844 207.917969 L 153.640625 213.246094 C 153.453125 213.433594 153.207031 213.527344 152.964844 213.527344 C 152.71875 213.527344 152.472656 213.433594 152.285156 213.246094 C 151.910156 212.871094 151.910156 212.261719 152.285156 211.890625 L 157.609375 206.5625 C 157.984375 206.1875 158.589844 206.1875 158.964844 206.5625 " fill-opacity="1" fill-rule="nonzero"/><path fill="rgb(100%, 100%, 100%)" d="M 216.246094 195.640625 C 216.246094 192.375 213.597656 189.726562 210.335938 189.726562 C 207.070312 189.726562 204.425781 192.375 204.425781 195.640625 C 204.425781 198.90625 207.070312 201.554688 210.335938 201.554688 C 213.597656 201.554688 216.246094 198.90625 216.246094 195.640625 Z M 218.160156 195.640625 C 218.160156 199.957031 214.652344 203.46875 210.335938 203.46875 C 206.019531 203.46875 202.511719 199.957031 202.511719 195.640625 C 202.511719 191.320312 206.019531 187.8125 210.335938 187.8125 C 214.652344 187.8125 218.160156 191.320312 218.160156 195.640625 Z M 211.925781 196.640625 C 211.046875 196.640625 210.335938 197.351562 210.335938 198.230469 C 210.335938 199.109375 211.046875 199.820312 211.925781 199.820312 C 212.804688 199.820312 213.515625 199.109375 213.515625 198.230469 C 213.515625 197.351562 212.804688 196.640625 211.925781 196.640625 Z M 238.933594 239.746094 C 238.492188 239.453125 237.898438 239.570312 237.605469 240.011719 C 232.972656 246.964844 226.800781 253.011719 219.761719 257.503906 C 219.3125 257.789062 219.183594 258.378906 219.46875 258.828125 C 219.648438 259.113281 219.960938 259.269531 220.277344 259.269531 C 220.453125 259.269531 220.628906 259.21875 220.789062 259.121094 C 228.054688 254.488281 234.417969 248.246094 239.199219 241.074219 C 239.492188 240.636719 239.371094 240.039062 238.933594 239.746094 Z M 245.855469 185.476562 C 245.683594 184.972656 245.140625 184.703125 244.640625 184.871094 C 244.140625 185.039062 243.871094 185.582031 244.039062 186.085938 C 246.484375 193.382812 247.675781 200.128906 247.675781 206.707031 C 247.675781 212.699219 246.792969 218.621094 245.054688 224.304688 C 244.898438 224.808594 245.183594 225.347656 245.6875 225.503906 C 245.78125 225.53125 245.875 225.542969 245.96875 225.542969 C 246.378906 225.542969 246.757812 225.277344 246.882812 224.863281 C 248.679688 219 249.589844 212.890625 249.589844 206.707031 C 249.589844 199.917969 248.367188 192.972656 245.855469 185.476562 Z M 222.300781 155.289062 C 221.863281 154.992188 221.265625 155.105469 220.96875 155.546875 C 220.671875 155.984375 220.785156 156.578125 221.222656 156.875 C 229.785156 162.691406 236.59375 170.34375 240.914062 179.003906 C 241.085938 179.339844 241.421875 179.535156 241.773438 179.535156 C 241.917969 179.535156 242.0625 179.503906 242.199219 179.433594 C 242.671875 179.199219 242.867188 178.625 242.628906 178.148438 C 238.164062 169.195312 231.132812 161.289062 222.300781 155.289062 Z M 211.109375 193.496094 C 211.109375 192.3125 210.152344 191.355469 208.96875 191.355469 C 207.785156 191.355469 206.824219 192.3125 206.824219 193.496094 C 206.824219 194.679688 207.785156 195.640625 208.96875 195.640625 C 210.152344 195.640625 211.109375 194.679688 211.109375 193.496094 Z M 165.464844 193.496094 C 165.464844 192.3125 164.503906 191.355469 163.320312 191.355469 C 162.140625 191.355469 161.179688 192.3125 161.179688 193.496094 C 161.179688 194.679688 162.140625 195.640625 163.320312 195.640625 C 164.503906 195.640625 165.464844 194.679688 165.464844 193.496094 Z M 164.691406 198.230469 C 164.691406 199.109375 165.402344 199.820312 166.28125 199.820312 C 167.15625 199.820312 167.871094 199.109375 167.871094 198.230469 C 167.871094 197.351562 167.15625 196.640625 166.28125 196.640625 C 165.402344 196.640625 164.691406 197.351562 164.691406 198.230469 Z M 164.691406 201.554688 C 167.953125 201.554688 170.597656 198.90625 170.597656 195.640625 C 170.597656 192.375 167.953125 189.726562 164.691406 189.726562 C 161.425781 189.726562 158.777344 192.375 158.777344 195.640625 C 158.777344 198.90625 161.425781 201.554688 164.691406 201.554688 Z M 164.691406 203.46875 C 160.375 203.46875 156.863281 199.957031 156.863281 195.640625 C 156.863281 191.320312 160.375 187.8125 164.691406 187.8125 C 169.003906 187.8125 172.515625 191.320312 172.515625 195.640625 C 172.515625 199.957031 169.003906 203.46875 164.691406 203.46875 Z M 133.839844 239.464844 C 130.203125 238.636719 127.078125 237.585938 124.460938 236.320312 C 129.597656 247.265625 137.558594 256.859375 147.769531 263.964844 C 158.617188 271.515625 171.222656 275.761719 184.402344 276.339844 C 162.394531 272.5625 143.863281 258.59375 133.839844 239.464844 Z M 184.40625 137.078125 C 151.128906 142.789062 125.804688 171.785156 125.804688 206.707031 C 125.804688 217.628906 128.285156 227.96875 132.707031 237.199219 C 128.578125 236.132812 125.484375 234.824219 123.171875 233.421875 C 119.703125 225.0625 117.84375 216.003906 117.84375 206.707031 C 117.84375 169.316406 147.425781 138.707031 184.40625 137.078125 " fill-opacity="1" fill-rule="nonzero"/></svg>